# File created by Blade
# Date/Time:  Wed Jan 21 17:05:57 2015
# Frame Rate: 120.000 fps
#------------------------------------------------------
:FULLY-SPECIFIED
:DEGREES
302
root 19.353437 8.737422 -13.431913 -182.285041 3.751468 -179.285726
Spine 79.733386 3.588773 0.937837
Head -12.129845 0.002178 2.221694
LeftShoulder 21.982602 -62.186227 24.242713
LeftArm 52.239554 6.573797 -10.313502
LeftForeArm -0.047953 0.000000 -0.643645
LeftHand -5.262058 0.000000 17.724440
LeftHandThumb1 -26.253704 0.000000 33.147579
RightShoulder 10.331665 26.875821 -36.746481
RightArm 51.503073 36.899965 18.081643
RightForeArm -24.202685 0.000000 10.054306
RightHand -10.306092 -0.000000 -16.780846
RightHandThumb1 -24.326973 -0.000000 -32.862282
LeftUpLeg -119.399882 29.615388 -7.600450
LeftLeg 148.338137 -0.000000 -0.000000
LeftFoot -47.258469 18.682459 -12.035172
LeftToeBase 24.970200 -0.000000 -0.000000
RightUpLeg -118.249988 -20.595217 8.069585
RightLeg 146.151162 -0.000000 -0.000000
RightFoot -47.371114 -23.648932 14.954483
RightToeBase 24.761885 -0.000000 -0.000000
303
root 19.348690 8.715592 -13.441618 -182.332029 3.698825 -179.280816
Spine 79.769284 3.525773 0.989534
Head -12.084586 -0.002661 2.266117
LeftShoulder 22.035809 -62.232001 24.223454
LeftArm 52.230748 6.467261 -10.542641
LeftForeArm 0.293789 -0.000000 -0.766821
LeftHand -5.202631 -0.000000 17.622197
LeftHandThumb1 -26.253704 0.000000 33.147579
RightShoulder 10.360693 26.982558 -36.716592
RightArm 51.422793 36.782242 18.046090
RightForeArm -24.131326 -0.000000 10.090807
RightHand -10.368853 0.000000 -16.666529
RightHandThumb1 -24.326973 -0.000000 -32.862282
LeftUpLeg -119.474334 29.580751 -7.621254
LeftLeg 148.414538 -0.000000 -0.000000
LeftFoot -47.211505 18.689801 -12.004963
LeftToeBase 24.977195 -0.000000 -0.000000
RightUpLeg -118.270386 -20.637772 8.008843
RightLeg 146.229062 -0.000000 -0.000000
RightFoot -47.375752 -23.658184 14.983139
RightToeBase 24.731627 -0.000000 -0.000000
304
root 19.344475 8.688443 -13.451972 -182.361300 3.669384 -179.263231
Spine 79.759599 3.485891 1.061213
Head -11.986280 -0.015153 2.309581
LeftShoulder 22.060791 -62.237113 24.192856
LeftArm 52.274819 6.504719 -10.565602
LeftForeArm 0.273573 -0.000000 -0.785329
LeftHand -5.240075 -0.000000 17.660895
LeftHandThumb1 -26.253704 0.000000 33.147579
RightShoulder 10.371556 26.974926 -36.681948
RightArm 51.402357 36.698966 17.986607
RightForeArm -24.020132 -0.000000 10.101442
RightHand -10.396680 -0.000000 -16.590670
RightHandThumb1 -24.326973 -0.000000 -32.862282
LeftUpLeg -119.596436 29.569906 -7.643930
LeftLeg 148.509039 -0.000000 -0.000000
LeftFoot -47.187399 18.716703 -11.972589
LeftToeBase 24.994304 -0.000000 -0.000000
RightUpLeg -118.317219 -20.654682 7.957206
RightLeg 146.310507 -0.000000 -0.000000
RightFoot -47.367560 -23.706536 14.930102
RightToeBase 24.872669 -0.000000 -0.000000
305
root 19.342062 8.677478 -13.458221 -182.421633 3.635287 -179.267280
Spine 79.846757 3.450351 1.081564
Head -11.961271 0.000464 2.361910
LeftShoulder 22.085753 -62.202105 24.196051
LeftArm 52.254446 6.735470 -10.148227
LeftForeArm -0.114761 -0.000000 -0.660477
LeftHand -5.335398 0.000000 17.554511
LeftHandThumb1 -26.253704 0.000000 33.147579
RightShoulder 10.414010 27.050438 -36.683102
RightArm 51.402702 36.726486 18.091337
RightForeArm -24.046858 -0.000000 10.080575
RightHand -10.307915 -0.000000 -16.522266
RightHandThumb1 -24.326973 -0.000000 -32.862282
LeftUpLeg -119.625273 29.582167 -7.685502
LeftLeg 148.552387 -0.000000 -0.000000
LeftFoot -47.143782 18.711358 -11.947871
LeftToeBase 24.994642 -0.000000 -0.000000
RightUpLeg -118.282318 -20.667593 7.893372
RightLeg 146.355153 -0.000000 -0.000000
RightFoot -47.380850 -23.716960 14.987523
RightToeBase 24.769343 -0.000000 -0.000000
306
root 19.337582 8.659831 -13.465801 -182.456501 3.594148 -179.256243
Spine 79.874814 3.393166 1.085821
Head -11.899823 0.017839 2.416028
LeftShoulder 22.028383 -62.123523 24.247402
LeftArm 52.290277 6.734424 -10.058250
LeftForeArm -0.213235 -0.000000 -0.651199
LeftHand -5.383095 -0.000000 17.753369
LeftHandThumb1 -26.253704 0.000000 33.147579
RightShoulder 10.474403 27.145412 -36.694383
RightArm 51.367447 36.660846 18.179565
RightForeArm -24.085744 0.000000 10.074448
RightHand -10.240092 -0.000000 -16.525251
RightHandThumb1 -24.326973 -0.000000 -32.862282
LeftUpLeg -119.690303 29.561638 -7.708480
LeftLeg 148.620010 -0.000000 -0.000000
LeftFoot -47.104521 18.676848 -11.957523
LeftToeBase 24.800796 -0.000000 -0.000000
RightUpLeg -118.292471 -20.699374 7.838134
RightLeg 146.413548 -0.000000 -0.000000
RightFoot -47.371452 -23.750899 14.964735
RightToeBase 24.817725 -0.000000 -0.000000
307
root 19.333187 8.639846 -13.473151 -182.475588 3.552575 -179.253884
Spine 79.877085 3.344019 1.071715
Head -11.833620 0.035650 2.474282
LeftShoulder 22.046199 -62.120452 24.245451
LeftArm 52.283846 6.741286 -10.077981
LeftForeArm -0.061307 -0.000000 -0.698691
LeftHand -5.338897 -0.000000 17.762543
LeftHandThumb1 -26.253704 0.000000 33.147579
RightShoulder 10.507577 27.198390 -36.690317
RightArm 51.360004 36.581896 18.234845
RightForeArm -24.165459 0.000000 10.098227
RightHand -10.194753 -0.000000 -16.469137
RightHandThumb1 -24.326973 -0.000000 -32.862282
LeftUpLeg -119.786389 29.536666 -7.746015
LeftLeg 148.682492 -0.000000 -0.000000
LeftFoot -47.090789 18.727608 -11.886180
LeftToeBase 24.935376 -0.000000 -0.000000
RightUpLeg -118.332778 -20.715392 7.773423
RightLeg 146.471820 -0.000000 -0.000000
RightFoot -47.370637 -23.826020 14.989948
RightToeBase 25.047848 -0.000000 -0.000000
308
root 19.331367 8.623592 -13.479826 -182.484684 3.548044 -179.267739
Spine 79.878814 3.365662 1.048163
Head -11.768585 0.078930 2.591384
LeftShoulder 22.067296 -62.090397 24.255388
LeftArm 52.309883 6.773862 -10.018924
LeftForeArm -0.135743 -0.000000 -0.679472
LeftHand -5.441662 -0.000000 17.798439
LeftHandThumb1 -26.253704 0.000000 33.147579
RightShoulder 10.499233 27.282224 -36.664057
RightArm 51.426091 36.485371 18.386653
RightForeArm -24.268747 0.000000 10.125282
RightHand -10.303497 -0.000000 -16.292982
RightHandThumb1 -24.326973 -0.000000 -32.862282
LeftUpLeg -119.875782 29.567921 -7.803469
LeftLeg 148.740668 -0.000000 -0.000000
LeftFoot -47.068976 18.718516 -11.848741
LeftToeBase 24.983318 -0.000000 -0.000000
RightUpLeg -118.378299 -20.675291 7.716032
RightLeg 146.528690 -0.000000 -0.000000
RightFoot -47.350708 -23.819080 14.996268
RightToeBase 24.770779 -0.000000 -0.000000
309
root 19.327011 8.608654 -13.485071 -182.473675 3.532595 -179.260156
Spine 79.863659 3.361925 1.060113
Head -11.719622 0.075869 2.696286
LeftShoulder 22.104976 -62.151001 24.257290
LeftArm 52.288000 6.782735 -10.149638
LeftForeArm 0.022686 -0.000000 -0.690418
LeftHand -5.490664 -0.000000 17.620970
LeftHandThumb1 -26.253704 0.000000 33.147579
RightShoulder 10.520109 27.303714 -36.620518
RightArm 51.407328 36.383808 18.355219
RightForeArm -24.209899 -0.000000 10.154631
RightHand -10.334473 -0.000000 -16.139208
RightHandThumb1 -24.326973 -0.000000 -32.862282
LeftUpLeg -119.984400 29.572003 -7.853919
LeftLeg 148.794359 -0.000000 -0.000000
LeftFoot -47.053301 18.721297 -11.803937
LeftToeBase 25.048375 -0.000000 -0.000000
RightUpLeg -118.428997 -20.660682 7.674430
RightLeg 146.570053 -0.000000 -0.000000
RightFoot -47.330829 -23.848693 14.988708
RightToeBase 24.692276 -0.000000 -0.000000
310
root 19.322576 8.598994 -13.487927 -182.457579 3.509669 -179.249145
Spine 79.859185 3.337066 1.086443
Head -11.668082 0.077716 2.738836
LeftShoulder 22.321657 -62.367300 24.094157
LeftArm 52.147067 6.742983 -10.569453
LeftForeArm 0.412489 0.000000 -0.715114
LeftHand -5.415718 -0.000000 17.908012
LeftHandThumb1 -26.253704 0.000000 33.147579
RightShoulder 10.549234 27.148556 -36.613601
RightArm 51.342548 36.391710 18.168946
RightForeArm -24.064082 0.000000 10.166005
RightHand -10.340605 0.000000 -15.970021
RightHandThumb1 -24.326973 -0.000000 -32.862282
LeftUpLeg -120.075192 29.558420 -7.902438
LeftLeg 148.828403 -0.000000 -0.000000
LeftFoot -47.028944 18.722038 -11.783304
LeftToeBase 25.003543 -0.000000 -0.000000
RightUpLeg -118.445668 -20.669076 7.622387
RightLeg 146.591866 -0.000000 -0.000000
RightFoot -47.330983 -23.876984 14.926420
RightToeBase 24.785104 -0.000000 -0.000000
311
root 19.316352 8.591425 -13.491223 -182.431057 3.468677 -179.228256
Spine 79.850064 3.309448 1.127882
Head -11.618898 0.039429 2.840000
LeftShoulder 22.390597 -62.448086 24.040034
LeftArm 52.167497 6.776231 -10.659744
LeftForeArm 0.503884 -0.000000 -0.758033
LeftHand -5.303242 -0.000000 17.826114
LeftHandThumb1 -26.253704 0.000000 33.147579
RightShoulder 10.526691 27.189033 -36.588939
RightArm 51.437689 36.343430 18.330826
RightForeArm -24.249885 -0.000000 10.189589
RightHand -10.371719 -0.000000 -15.839652
RightHandThumb1 -24.326973 -0.000000 -32.862282
LeftUpLeg -120.162953 29.512949 -7.948305
LeftLeg 148.862016 -0.000000 -0.000000
LeftFoot -47.019244 18.761342 -11.733639
LeftToeBase 25.058299 -0.000000 -0.000000
RightUpLeg -118.497425 -20.680236 7.621164
RightLeg 146.613952 -0.000000 -0.000000
RightFoot -47.322302 -23.895944 15.008848
RightToeBase 24.703459 -0.000000 -0.000000
312
root 19.310841 8.587533 -13.492677 -182.405216 3.438433 -179.226578
Spine 79.846901 3.291790 1.147165
Head -11.563538 -0.000565 2.903349
LeftShoulder 22.549452 -62.549131 23.905722
LeftArm 52.133911 6.845306 -10.711717
LeftForeArm 0.696136 -0.000000 -0.757668
LeftHand -5.333313 -0.000000 17.565383
LeftHandThumb1 -26.253704 0.000000 33.147579
RightShoulder 10.556180 27.137704 -36.565598
RightArm 51.392312 36.303931 18.234102
RightForeArm -24.239955 0.000000 10.150993
RightHand -10.291231 -0.000000 -15.721564
RightHandThumb1 -24.326973 -0.000000 -32.862282
LeftUpLeg -120.229817 29.475861 -8.007587
LeftLeg 148.875882 -0.000000 -0.000000
LeftFoot -47.011248 18.757008 -11.734701
LeftToeBase 24.981697 -0.000000 -0.000000
RightUpLeg -118.514950 -20.685158 7.572189
RightLeg 146.621177 -0.000000 -0.000000
RightFoot -47.333499 -23.935645 15.009897
RightToeBase 24.752121 -0.000000 -0.000000
